<svg width="32" height="32" viewBox="0 0 32 32" fill="none" xmlns="http://www.w3.org/2000/svg">
  <rect width="32" height="32" rx="6" fill="#B8860B"/>
  <path d="M16 6L15 8L16 10L17 8L16 6Z" fill="#FFD700"/>
  <path d="M14 8L13 10L14 12L15 10L14 8Z" fill="#FFD700"/>
  <path d="M18 8L17 10L18 12L19 10L18 8Z" fill="#FFD700"/>
  <path d="M12 10L11 12L12 14L13 12L12 10Z" fill="#FFD700"/>
  <path d="M20 10L19 12L20 14L21 12L20 10Z" fill="#FFD700"/>
  <path d="M14 12L13 14L14 16L15 14L14 12Z" fill="#FFD700"/>
  <path d="M18 12L17 14L18 16L19 14L18 12Z" fill="#FFD700"/>
  <path d="M16 14L15 16L16 18L17 16L16 14Z" fill="#FFD700"/>
  <path d="M16 18L16 26" stroke="#8B4513" stroke-width="2" stroke-linecap="round"/>
</svg> 